# AST/ASF file generated using VICON BodyLanguage
# -----------------------------------------------
:version 1.10
:name VICON
:units
  mass 1.0
  length 0.45
  angle deg
:documentation
   .ast/.asf automatically generated from VICON data using
   VICON BodyBuilder and BodyLanguage model FoxedUp or BRILLIANT.MOD
:root
   order TX TY TZ RX RY RZ
   axis XYZ
   position 0 0 0  
   orientation 0 0 0 
:bonedata
  begin
     id 1 
     name lhipjoint
     direction 0.588788 -0.725889 0.355548 
     length 2.37778 
     axis 0 0 0  XYZ
  end
  begin
     id 2 
     name lfemur
     direction 0.34202 -0.939693 0  
     length 6.86393  
     axis 0 0 20  XYZ
    dof rx ry rz
    limits (-160.0 20.0)
           (-70.0 70.0)
           (-60.0 70.0)
  end
  begin
     id 3 
     name ltibia
     direction 0.34202 -0.939693 0   
     length 7.32851   
     axis 0 0 20   XYZ
    dof rx
    limits (-10.0 170.0)
  end
  begin
     id 4 
     name lfoot
     direction 0.0626533 -0.172138 0.983078   
     length 1.98929   
     axis -90 7.62852e-016 20   XYZ
    dof rx rz
    limits (-45.0 90.0)
           (-70.0 20.0)
  end
  begin
     id 5 
     name ltoes
     direction 1.53647e-011 -4.21734e-011 1   
     length 1.00479   
     axis -90 7.62852e-016 20   XYZ
    dof rx
    limits (-90.0 20.0)
  end
  begin
     id 6 
     name rhipjoint
     direction -0.59141 -0.724168 0.354705   
     length 2.38343  
     axis 0 0 0  XYZ 
  end
  begin
     id 7 
     name rfemur
     direction -0.34202 -0.939693 0   
     length 6.95589   
     axis 0 0 -20   XYZ
    dof rx ry rz
    limits (-160.0 20.0)
           (-70.0 70.0)
           (-70.0 60.0)
  end
  begin
     id 8 
     name rtibia
     direction -0.34202 -0.939693 0   
     length 7.32327   
     axis 0 0 -20   XYZ
    dof rx
    limits (-10.0 170.0)
 end
 begin
     id 9 
     name rfoot
     direction -0.0660461 -0.18146 0.981178   
     length 1.85272  
     axis -90 -7.62852e-016 -20   XYZ
    dof rx rz
    limits (-45.0 90.0)
           (-20.0 70.0)
  end
  begin
     id 10 
     name rtoes
     direction -1.53586e-011 -4.21988e-011 1   
     length 0.93746   
     axis -90 -7.62852e-016 -20   XYZ
    dof rx
    limits (-90.0 20.0)
  end
  begin
     id 11 
     name lowerback
     direction -0.0107982 0.991059 0.13299   
     length 1.98691   
     axis 0 0 0   XYZ
    dof rx ry rz
    limits (-20.0 45.0)
           (-30.0 30.0)
           (-30.0 30.0)
  end
  begin
     id 12 
     name upperback
     direction 0.0076296 0.999916 0.0104576   
     length 1.99501   
     axis 0 0 0   XYZ
    dof rx ry rz
    limits (-20.0 45.0)
           (-30.0 30.0)
           (-30.0 30.0)
  end
  begin
     id 13 
     name thorax
     direction 0.01176 0.998615 -0.0512909   
     length 2.03144   
     axis 0 0 0   XYZ
    dof rx ry rz
    limits (-20.0 45.0)
           (-30.0 30.0)
           (-30.0 30.0)
  end
  begin
     id 14 
     name lowerneck
     direction -0.0171909 0.999644 0.0204011   
     length 1.71818   
     axis 0 0 0   XYZ
    dof rx ry rz
    limits (-20.0 45.0)
           (-30.0 30.0)
           (-30.0 30.0)
  end
  begin
     id 15 
     name upperneck
     direction 0.0250902 0.997482 -0.0663316   
     length 1.66199   
     axis 0 0 0   XYZ
    dof rx ry rz
    limits (-20.0 45.0)
           (-30.0 30.0)
           (-30.0 30.0)
  end
  begin
     id 16
     name head
     direction 0.00881535 0.99956 -0.0283365  
     length 1.81545  
     axis 0 0 0   XYZ
    dof rx ry rz
    limits (-20.0 45.0)
           (-30.0 30.0)
           (-30.0 30.0)
  end
  begin
     id 17 
     name lclavicle
     direction 0.840411 0.486876 -0.238035  
     length 3.30409  
     axis 0 0 0   XYZ
    dof ry rz
    limits (-20.0 10.0)
           (0.0 20.0)
  end
  begin
     id 18 
     name lhumerus
     direction 1 -4.48977e-011 -5.16239e-027   
     length 4.62672   
     axis 180 -30 -90   XYZ
    dof rx ry rz
    limits (-60.0 90.0)
           (-90.0 90.0)
           (-90.0 90.0)
  end
  begin
     id 19
     name lradius
     direction 1 -4.48977e-011 -8.71171e-027   
     length 3.11018   
     axis 180 -30 -90   XYZ
    dof rx
    limits (-10.0 170.0)
  end
  begin
     id 20
     name lwrist
     direction 1 -4.48912e-011 -1.03764e-026   
     length 1.55509   
     axis 9.09556e-015 90 90   XYZ
    dof ry
    limits (-180.0 0.0)
 end
  begin
     id 21 
     name lhand
     direction 1 -4.49072e-011 -2.07528e-026   
     length 0.743834   
     axis 1.3242e-014 90 90   XYZ
    dof rx rz
    limits (-90.0 90.0)
           (-45.0 45.0)
  end
  begin
     id 22 
     name lfingers
     direction 1 -4.48909e-011 -4.15056e-026   
     length 0.599698   
     axis 2.64841e-014 90 90   XYZ
    dof rx
    limits (0.0 90.0)
  end
  begin
     id 23
     name lthumb
     direction 0.707107 -6.35013e-011 0.707107   
     length 0.86105   
     axis -90 45 2.85299e-015   XYZ
    dof rx rz
    limits (-45.0 45.0)
           (-45.0 45.0)
  end
  begin
     id 24 
     name rclavicle
     direction -0.835208 0.500237 -0.228452   
     length 3.2716  
     axis 0 0 0   XYZ 
    dof ry rz
    limits (-10.0 20.0)
           (-20.0 0.0)
  end
  begin
     id 25 
     name rhumerus
     direction -1 -4.48978e-011 -5.1953e-028  
     length 4.55919   
     axis 180 30 90   XYZ
    dof rx ry rz
    limits (-90.0 60.0)
           (-90.0 90.0)
           (-90.0 90.0)
  end
  begin
     id 26 
     name rradius
     direction -1 -4.48961e-011 -5.99546e-027   
     length 3.22748   
     axis 180 30 90   XYZ
    dof rx
    limits (-10.0 170.0)
  end
  begin
     id 27 
     name rwrist
     direction -1 -4.48986e-011 -1.03764e-026   
     length 1.61374   
     axis 9.09556e-015 -90 -90   XYZ
    dof ry
    limits (-180.0 0.0)
  end
  begin
     id 28
     name rhand
     direction -1 -4.4899e-011 -2.07528e-026   
     length 0.700882   
     axis 1.3242e-014 -90 -90   XYZ
    dof rx rz
    limits (-90.0 90.0)
           (-45.0 45.0)
  end
  begin
     id 29
     name rfingers
     direction -1 -4.48991e-011 -4.15056e-026   
     length 0.565069   
     axis 2.64841e-014 -90 -90   XYZ
    dof rx
    limits (0.0 90.0)
  end
  begin
     id 30
     name rthumb
     direction -0.707107 -6.34804e-011 0.707107   
     length 0.811329   
     axis -90 -45 -2.85299e-015   XYZ
    dof rx rz
    limits (-45.0 45.0)
           (-45.0 45.0)
  end
:hierarchy
  begin
    root lhipjoint rhipjoint lowerback
    lhipjoint lfemur
    lfemur ltibia
    ltibia lfoot
    lfoot ltoes
    rhipjoint rfemur
    rfemur rtibia
    rtibia rfoot
    rfoot rtoes
    lowerback upperback
    upperback thorax
    thorax lowerneck lclavicle rclavicle
    lowerneck upperneck
    upperneck head
    lclavicle lhumerus
    lhumerus lradius
    lradius lwrist
    lwrist lhand lthumb
    lhand lfingers
    rclavicle rhumerus
    rhumerus rradius
    rradius rwrist
    rwrist rhand rthumb
    rhand rfingers
  end

#!OML:ASF F:\VICON\USERDATA\INSTALL\SteveWalk\SteveWalk.ASF
:FULLY-SPECIFIED
:DEGREES
48
root -0.768794 16.0645 -35.7715 17.2083 -2.53121 5.06679
lowerback -15.8856 -0.26168 -8.31074
upperback -5.22112 1.03771 -2.35265
thorax 3.21321 0.530389 2.39444
lowerneck -3.63077 -1.72535 -0.465344
upperneck 6.49386 -2.46233 2.6411
head 2.73585 -1.15079 0.841653
rclavicle 6.05672e-015 -1.94809e-014
rhumerus -35.3388 -3.68806 -86.4992
rradius 43.5901
rwrist -12.3649
rhand -15.2857 -29.2999
rfingers 7.12502
rthumb 10.8892 -58.9975
lclavicle 6.05672e-015 -1.94809e-014
lhumerus -69.1302 41.925 28.4843
lradius 10.8593
lwrist -50.4202
lhand -10.7025 -16.4761
lfingers 7.12502
lthumb 15.3071 12.9374
rfemur -12.0236 -3.4899 13.7999
rtibia 57.8427
rfoot 17.4305 15.7696
rtoes -18.7255
lfemur -46.2563 -1.83969 -27.5806
ltibia 36.682
lfoot -8.46146 -4.78695
ltoes -5.49541
49
root -0.764705 16.0926 -35.5584 17.0697 -2.89514 5.3415
lowerback -15.789 -0.222046 -8.58974
upperback -5.16962 1.13189 -2.51562
thorax 3.20258 0.575588 2.39366
lowerneck -3.61226 -1.70796 -0.39126
upperneck 6.31623 -2.44382 2.70859
head 2.67236 -1.13937 0.85118
rclavicle 4.88265e-015 -1.78906e-014
rhumerus -35.5862 -4.58713 -86.4109
rradius 42.8547
rwrist -13.0839
rhand -13.7832 -37.9783
rfingers 7.12502
rthumb 12.3381 -67.5942
lclavicle 4.88265e-015 -1.78906e-014
lhumerus -67.8353 42.0188 29.7439
lradius 10.9091
lwrist -49.6747
lhand -10.5972 -16.7977
lfingers 7.12502
lthumb 15.4085 12.608
rfemur -13.9246 -3.42259 13.3983
rtibia 60.9418
rfoot 17.6898 14.0365
rtoes -15.763
lfemur -45.299 -1.51548 -28.1032
ltibia 36.9045
lfoot -9.47668 -4.44067
ltoes -7.29839
50
root -0.758408 16.118 -35.3473 16.8382 -3.10326 5.74725
lowerback -15.5353 -0.218243 -8.94861
upperback -5.19263 1.16866 -2.72106
thorax 3.03231 0.600785 2.37918
lowerneck -3.32663 -1.73468 -0.185629
upperneck 6.24048 -2.47943 2.57147
head 2.5885 -1.15938 0.772061
rclavicle 3.45575e-014 -3.69739e-014
rhumerus -36.1532 -5.54159 -86.2525
rradius 40.9373
rwrist -11.8103
rhand -13.1659 -38.5151
rfingers 7.12502
rthumb 12.9332 -68.0943
lclavicle 3.45575e-014 -3.69739e-014
lhumerus -65.3005 41.0948 33.107
lradius 11.2057
lwrist -47.1826
lhand -10.8508 -16.3376
lfingers 7.12502
lthumb 15.1642 13.0868
rfemur -15.591 -3.50873 12.9231
rtibia 63.7979
rfoot 16.2506 12.3235
rtoes -17.2308
lfemur -44.197 -1.41064 -28.6904
ltibia 36.9728
lfoot -10.395 -4.06265
ltoes -8.69002
51
root -0.74634 16.138 -35.1608 17.2589 -3.96124 5.77265
lowerback -15.8796 -0.0655595 -8.93891
upperback -5.35716 1.39707 -2.80109
thorax 3.01906 0.716918 2.33237
lowerneck -2.87308 -1.70826 0.0146567
upperneck 5.74672 -2.42085 2.26274
head 2.33105 -1.14253 0.644197
rclavicle 2.34597e-014 3.18055e-015
rhumerus -36.353 -6.40016 -85.9922
rradius 38.7919
rwrist -10.6567
rhand -13.2707 -38.1184
rfingers 7.12502
rthumb 12.8323 -67.704
lclavicle 2.34597e-014 3.18055e-015
lhumerus -62.7949 40.255 36.6151
lradius 11.5904
lwrist -44.7479
lhand -11.1253 -15.5183
lfingers 7.12502
lthumb 14.8998 13.9259
rfemur -18.4134 -3.14499 12.6762
rtibia 66.6078
rfoot 14.2258 11.1456
rtoes -21.294
lfemur -43.9189 -1.01892 -28.9005
ltibia 36.9597
lfoot -11.0029 -3.52387
ltoes -7.96261
52
root -0.743972 16.1633 -34.9511 16.8998 -3.65143 6.09594
lowerback -15.5265 -0.320663 -9.16141
upperback -5.24549 1.06419 -2.84904
thorax 2.97833 0.551824 2.34337
lowerneck -2.96642 -1.58316 -0.228838
upperneck 6.04481 -2.26796 2.58096
head 2.45424 -1.05947 0.7915
rclavicle -2.9973e-015 -1.90833e-014
rhumerus -36.3541 -7.27367 -85.8015
rradius 36.3688
rwrist -9.91389
rhand -14.5765 -37.5477
rfingers 7.12502
rthumb 11.5732 -67.2082
lclavicle -2.9973e-015 -1.90833e-014
lhumerus -60.9016 39.7503 39.0908
lradius 11.8186
lwrist -43.3991
lhand -11.4988 -14.68
lfingers 7.12502
lthumb 14.54 14.7904
rfemur -19.7766 -3.76336 12.5001
rtibia 69.0414
rfoot 11.9555 9.71907
rtoes -22.9202
lfemur -42.505 -1.21926 -29.231
ltibia 36.8698
lfoot -11.8499 -3.49199
ltoes -6.88355
53
root -0.737654 16.1913 -34.745 16.8546 -3.92649 6.10621
lowerback -14.9761 -0.25861 -9.00085
upperback -5.58848 1.03279 -2.97386
thorax 2.32781 0.568385 2.10827
lowerneck -2.90054 -1.45072 -0.232199
upperneck 6.49051 -2.11128 2.73495
head 2.59089 -0.973449 0.847255
rclavicle -2.41089e-014 5.00937e-014
rhumerus -36.9546 -8.69948 -85.4022
rradius 33.9665
rwrist -8.43692
rhand -15.0351 -36.3908
rfingers 7.12502
rthumb 11.1309 -66.0756
lclavicle -2.41089e-014 5.00937e-014
lhumerus -59.0545 38.4658 41.5517
lradius 11.9718
lwrist -41.7515
lhand -11.8005 -16.0366
lfingers 7.12502
lthumb 14.2492 13.4546
rfemur -21.7314 -3.74207 12.4749
rtibia 71.2806
rfoot 10.2019 8.1792
rtoes -21.878
lfemur -41.5141 -0.885818 -29.414
ltibia 36.7825
lfoot -12.6868 -3.34363
ltoes -6.64955
54
root -0.731623 16.2186 -34.5541 17.0615 -4.43708 5.85699
lowerback -15.4707 -0.210059 -8.93901
upperback -5.42875 1.14976 -2.76985
thorax 2.74844 0.606429 2.31602
lowerneck -2.86304 -1.3441 -0.278277
upperneck 6.20307 -1.94697 2.5556
head 2.48298 -0.901006 0.802515
rclavicle -4.81432e-015 3.97569e-015
rhumerus -36.7092 -10.0739 -84.585
rradius 31.5425
rwrist -6.5293
rhand -14.6889 -34.9139
rfingers 7.12502
rthumb 11.4648 -64.5804
lclavicle -4.81432e-015 3.97569e-015
lhumerus -56.6638 37.8744 44.7627
lradius 12.2655
lwrist -39.9483
lhand -12.0021 -16.1738
lfingers 7.12502
lthumb 14.055 13.331
rfemur -24.1176 -3.40532 12.7455
rtibia 73.2186
rfoot 8.45059 7.1992
rtoes -22.4038
lfemur -40.9142 -0.297472 -29.3883
ltibia 36.6534
lfoot -13.397 -3.1881
ltoes -6.24142
55
root -0.720882 16.2428 -34.3602 17.1406 -4.38061 5.7252
lowerback -15.5714 -0.32367 -8.69536
upperback -5.38423 0.974024 -2.64669
thorax 2.87233 0.512849 2.28185
lowerneck -2.82212 -1.25988 -0.326749
upperneck 6.19561 -1.82416 2.44282
head 2.4699 -0.844688 0.77869
rclavicle 7.78056e-015 -3.57812e-015
rhumerus -36.7849 -11.387 -83.7416
rradius 29.2627
rwrist -4.56697
rhand -14.4983 -33.9926
rfingers 7.12502
rthumb 11.6486 -63.6488
lclavicle 7.78056e-015 -3.57812e-015
lhumerus -54.5254 37.1236 47.6735
lradius 12.7245
lwrist -38.1779
lhand -12.1832 -15.4189
lfingers 7.12502
lthumb 13.8804 14.0978
rfemur -26.0809 -3.53757 13.0574
rtibia 74.8119
rfoot 6.34794 6.51297
rtoes -23.7944
lfemur -40.1511 -0.250171 -29.3384
ltibia 36.5184
lfoot -14.0956 -2.64964
ltoes -7.23508
56
root -0.711219 16.2729 -34.1594 17.1928 -4.61807 5.37508
lowerback -15.478 -0.236428 -8.17549
upperback -5.48737 0.990712 -2.59791
thorax 2.72437 0.525858 2.04483
lowerneck -2.9057 -1.20633 -0.180173
upperneck 6.52346 -1.75853 2.29829
head 2.58976 -0.809687 0.709369
rclavicle -1.56046e-014 3.10104e-014
rhumerus -37.2357 -13.0825 -82.761
rradius 27.1248
rwrist -2.34337
rhand -14.1632 -33.8102
rfingers 7.12502
rthumb 11.9717 -63.4478
lclavicle -1.56046e-014 3.10104e-014
lhumerus -52.8079 36.5244 49.6205
lradius 12.9454
lwrist -37.3481
lhand -12.6288 -15.1333
lfingers 7.12502
lthumb 13.451 14.4124
rfemur -28.0784 -3.10406 13.4468
rtibia 76.0262
rfoot 5.17082 5.5174
rtoes -18.8317
lfemur -39.3076 -0.0855753 -29.0694
ltibia 36.3593
lfoot -14.7532 -1.88746
ltoes -8.93494
57
root -0.701007 16.3047 -33.9528 17.1907 -4.77862 4.9977
lowerback -15.1113 -0.117256 -7.63639
upperback -5.77043 1.00856 -2.54136
thorax 2.23968 0.553482 1.80056
lowerneck -2.73659 -1.16025 0.0257857
upperneck 6.82961 -1.6974 2.06296
head 2.65449 -0.780038 0.601393
rclavicle -5.57218e-015 -1.11319e-014
rhumerus -38.226 -15.0697 -81.3775
rradius 25.1407
rwrist 0.113845
rhand -13.6172 -33.8202
rfingers 7.12502
rthumb 12.4982 -63.4264
lclavicle -5.57218e-015 -1.11319e-014
lhumerus -50.7498 34.4112 52.7356
lradius 13.374
lwrist -35.1904
lhand -13.0071 -15.2112
lfingers 7.12502
lthumb 13.0863 14.3583
rfemur -29.9478 -2.69957 13.8764
rtibia 76.8825
rfoot 4.45843 4.85672
rtoes -12.5271
lfemur -38.3299 -0.00518481 -28.7388
ltibia 36.1283
lfoot -15.2959 -1.94554
ltoes -8.65825
58
root -0.697362 16.3303 -33.7697 17.2311 -4.38827 4.78582
lowerback -15.283 -0.269374 -7.2985
upperback -5.56935 0.786747 -2.42442
thorax 2.57024 0.426765 1.70113
lowerneck -2.72139 -1.08136 0.0759929
upperneck 6.69249 -1.58185 1.92076
head 2.60202 -0.726814 0.550793
rclavicle 9.0447e-015 -3.06128e-014
rhumerus -38.4704 -17.4117 -79.8272
rradius 23.0049
rwrist 3.20925
rhand -12.999 -33.6582
rfingers 7.12502
rthumb 13.0942 -63.2271
lclavicle 9.0447e-015 -3.06128e-014
lhumerus -47.9968 32.3411 56.5008
lradius 13.9827
lwrist -32.6087
lhand -13.2355 -15.3306
lfingers 7.12502
lthumb 12.8662 14.2528
rfemur -31.7769 -2.98272 14.4259
rtibia 77.6057
rfoot 3.24594 4.69777
rtoes -13.1599
lfemur -37.4666 -0.147851 -28.4976
ltibia 35.8582
lfoot -15.7311 -2.49672
ltoes -7.65944
59
root -0.686208 16.3577 -33.5753 17.2391 -4.1634 4.40346
lowerback -15.152 -0.309153 -6.75313
upperback -5.55926 0.637146 -2.23335
thorax 2.5319 0.350886 1.57112
lowerneck -2.99573 -1.08076 -0.0291734
upperneck 7.10498 -1.57877 1.83457
head 2.79173 -0.726253 0.540653
rclavicle -2.36678e-015 3.33958e-014
rhumerus -39.2235 -20.0955 -77.6648
rradius 20.8024
rwrist 7.22402
rhand -12.5466 -33.2126
rfingers 7.12502
rthumb 13.5303 -62.7531
lclavicle -2.36678e-015 3.33958e-014
lhumerus -45.8609 30.4165 59.6009
lradius 14.5567
lwrist -30.5944
lhand -13.9362 -15.2365
lfingers 7.12502
lthumb 12.1906 14.3882
rfemur -33.412 -3.03621 15.0428
rtibia 78.024
rfoot 2.078 4.74803
rtoes -12.7996
lfemur -36.4836 -0.269133 -28.0931
ltibia 35.573
lfoot -16.2842 -2.23353
ltoes -8.22168
